<?xml version="1.0" encoding="UTF-8" standalone="no"?>
<!-- Created with Inkscape (http://www.inkscape.org/) -->

<svg
   xmlns:dc="http://purl.org/dc/elements/1.1/"
   xmlns:cc="http://creativecommons.org/ns#"
   xmlns:rdf="http://www.w3.org/1999/02/22-rdf-syntax-ns#"
   xmlns:svg="http://www.w3.org/2000/svg"
   xmlns="http://www.w3.org/2000/svg"
   xmlns:sodipodi="http://sodipodi.sourceforge.net/DTD/sodipodi-0.dtd"
   xmlns:inkscape="http://www.inkscape.org/namespaces/inkscape"
   width="64px"
   height="64px"
   id="svg2985"
   version="1.1"
   inkscape:version="0.92.5 (2060ec1f9f, 2020-04-08)"
   sodipodi:docname="filmulator64icon.svg">
  <defs
     id="defs29" />
  <sodipodi:namedview
     id="base"
     pagecolor="#ffffff"
     bordercolor="#666666"
     borderopacity="1.0"
     inkscape:pageopacity="0.0"
     inkscape:pageshadow="2"
     inkscape:zoom="11.313709"
     inkscape:cx="-9.5316947"
     inkscape:cy="40.292038"
     inkscape:current-layer="layer1"
     showgrid="true"
     inkscape:document-units="px"
     inkscape:grid-bbox="true"
     inkscape:window-width="2608"
     inkscape:window-height="1786"
     inkscape:window-x="891"
     inkscape:window-y="299"
     inkscape:window-maximized="0" />
  <metadata
     id="metadata2990">
    <rdf:RDF>
      <cc:Work
         rdf:about="">
        <dc:format>image/svg+xml</dc:format>
        <dc:type
           rdf:resource="http://purl.org/dc/dcmitype/StillImage" />
        <dc:title />
      </cc:Work>
    </rdf:RDF>
  </metadata>
  <g
     id="layer1"
     inkscape:label="Layer 1"
     inkscape:groupmode="layer">
    <rect
       style="fill:#d45500"
       id="rect2993"
       width="63.99984"
       height="57.938179"
       x="1.6181183e-08"
       y="2.8184016" />
    <rect
       style="opacity:0.82999996;fill:#1a1a1a"
       id="rect3133"
       width="60.828041"
       height="40.599018"
       x="1.2687191"
       y="11.347015" />
    <g
       style="font-style:normal;font-weight:normal;font-size:19.06970596px;line-height:37.99999952%;font-family:Sans;text-align:start;letter-spacing:0px;word-spacing:0px;text-anchor:start;fill:#ffffff;fill-opacity:1;stroke:none"
       id="text3135"
       transform="matrix(1.0539316,0,0,1.0276444,-0.24713172,-0.42382706)">
      <path
         d="m 8.5296453,26.252342 v 8.263073 H 4.5823174 V 15.331402 H 18.055863 v 3.28944 H 8.5296453 v 4.34206 h 8.3946507 v 3.28944 H 8.5296453"
         style="font-variant:normal;font-weight:600;font-stretch:normal;font-size:26.31551933px;line-height:37.99999952%;font-family:FreeSans;-inkscape-font-specification:'FreeSans Semi-Bold';fill:#ffffff"
         id="path3024"
         inkscape:connector-curvature="0" />
      <path
         d="m 24.656125,20.305035 v 14.21038 h -3.684173 v -14.21038 h 3.684173 m 0,-4.973633 v 3.28944 h -3.684173 v -3.28944 h 3.684173"
         style="font-variant:normal;font-weight:600;font-stretch:normal;font-size:26.31551933px;line-height:37.99999952%;font-family:FreeSans;-inkscape-font-specification:'FreeSans Semi-Bold';fill:#ffffff"
         id="path3026"
         inkscape:connector-curvature="0" />
      <path
         d="M 31.874389,15.331402 V 34.515415 H 28.190217 V 15.331402 h 3.684172"
         style="font-variant:normal;font-weight:600;font-stretch:normal;font-size:26.31551933px;line-height:37.99999952%;font-family:FreeSans;-inkscape-font-specification:'FreeSans Semi-Bold';fill:#ffffff"
         id="path3028"
         inkscape:connector-curvature="0" />
      <path
         d="m 35.283072,20.305035 h 3.657857 v 1.76314 c 0.614023,-0.719278 1.210508,-1.228044 1.789456,-1.526301 0.596477,-0.315772 1.298223,-0.473664 2.105241,-0.473679 1.859619,1.5e-5 3.149078,0.701761 3.868382,2.105242 1.052606,-1.403481 2.438555,-2.105227 4.157852,-2.105242 1.421019,1.5e-5 2.52627,0.385975 3.315755,1.157883 0.806988,0.771934 1.210492,1.85087 1.210514,3.236809 v 10.052528 h -3.684173 v -9.473587 c -1.8e-5,-0.561387 -0.184226,-1.008751 -0.552626,-1.342091 -0.35089,-0.333319 -0.833341,-0.499984 -1.447353,-0.499995 -0.789481,1.1e-5 -1.412281,0.245622 -1.868402,0.736834 -0.438606,0.491234 -0.657902,1.175436 -0.657888,2.052611 v 8.526228 h -3.684173 v -9.473587 c -10e-6,-0.561387 -0.184218,-1.008751 -0.552626,-1.342091 -0.350882,-0.333319 -0.833333,-0.499984 -1.447353,-0.499995 -0.789473,1.1e-5 -1.412273,0.245622 -1.868402,0.736834 -0.438598,0.491234 -0.657894,1.175436 -0.657888,2.052611 v 8.526228 h -3.684173 v -14.21038"
         style="font-variant:normal;font-weight:600;font-stretch:normal;font-size:26.31551933px;line-height:37.99999952%;font-family:FreeSans;-inkscape-font-specification:'FreeSans Semi-Bold';fill:#ffffff"
         id="path3030"
         inkscape:connector-curvature="0" />
    </g>
    <g
       style="font-style:normal;font-weight:normal;font-size:10px;line-height:125%;font-family:Sans;letter-spacing:0px;word-spacing:0px;fill:#ffffff;fill-opacity:1;stroke:none"
       id="text3085"
       transform="matrix(1.5575114,0,0,1.4611094,-32.706255,-22.6591)">
      <path
         d="m 29.747655,48.841396 h -1.82 v -0.832 c -0.502672,0.754 -1.204671,1.131 -2.106,1.131 -0.745336,0 -1.326002,-0.212333 -1.742,-0.637 -0.407335,-0.424666 -0.611001,-1.022665 -0.611,-1.794 v -4.888 h 1.82 v 4.511 c -3e-6,0.840669 0.389997,1.261002 1.17,1.261 0.441995,2e-6 0.797328,-0.125665 1.066,-0.377 0.268661,-0.251331 0.402994,-0.584997 0.403,-1.001 v -4.394 h 1.82 v 7.02"
         style="font-variant:normal;font-weight:600;font-stretch:normal;font-size:13px;font-family:FreeSans;-inkscape-font-specification:'FreeSans Semi-Bold';fill:#ffffff"
         id="path3011"
         inkscape:connector-curvature="0" />
      <path
         d="m 33.261311,39.364396 v 9.477 h -1.82 v -9.477 h 1.82"
         style="font-variant:normal;font-weight:600;font-stretch:normal;font-size:13px;font-family:FreeSans;-inkscape-font-specification:'FreeSans Semi-Bold';fill:#ffffff"
         id="path3013"
         inkscape:connector-curvature="0" />
      <path
         d="m 36.752217,49.140396 c -0.641335,0 -1.157001,-0.190666 -1.547,-0.572 -0.390001,-0.389999 -0.585,-0.901332 -0.585,-1.534 0,-1.23933 0.688999,-1.975996 2.067,-2.21 l 0.728,-0.13 c 0.01733,4e-6 0.103997,-0.0087 0.26,-0.026 0.155996,-0.026 0.255663,-0.04333 0.299,-0.052 0.04333,-0.01733 0.125663,-0.03899 0.247,-0.065 0.129996,-0.02599 0.220996,-0.05633 0.273,-0.091 0.052,-0.03466 0.112662,-0.078 0.182,-0.13 0.078,-0.06066 0.129995,-0.125662 0.156,-0.195 0.026,-0.078 0.03899,-0.164661 0.039,-0.26 -5e-6,-0.467994 -0.351004,-0.701994 -1.053,-0.702 -0.45067,6e-6 -0.767003,0.06934 -0.949,0.208 -0.182002,0.138672 -0.294669,0.390005 -0.338,0.754 h -1.755 c 0.112666,-1.62066 1.113665,-2.430993 3.003,-2.431 1.915328,7e-6 2.872994,0.71934 2.873,2.158 v 3.9 c -6e-6,0.320668 0.13866,0.606667 0.416,0.858 v 0.221 h -1.976 c -0.138671,-0.173333 -0.208005,-0.407333 -0.208,-0.702 -0.641337,0.667334 -1.352003,1.001 -2.132,1.001 m 2.119,-3.12 v -0.494 c -0.164671,0.078 -0.420338,0.15167 -0.767,0.221 l -0.624,0.117 c -0.381336,0.078 -0.650003,0.19067 -0.806,0.338 -0.156002,0.147336 -0.234002,0.355336 -0.234,0.624 -2e-6,0.260002 0.08666,0.468002 0.26,0.624 0.181997,0.147335 0.424664,0.221002 0.728,0.221 0.45933,2e-6 0.814663,-0.142998 1.066,-0.429 0.251329,-0.285998 0.376995,-0.693331 0.377,-1.222"
         style="font-variant:normal;font-weight:600;font-stretch:normal;font-size:13px;font-family:FreeSans;-inkscape-font-specification:'FreeSans Semi-Bold';fill:#ffffff"
         id="path3015"
         inkscape:connector-curvature="0" />
      <path
         d="m 45.467498,41.964396 v 1.209 h -1.014 v 3.822 c -3e-6,0.312002 0.039,0.520002 0.117,0.624 0.078,0.09533 0.23833,0.143001 0.481,0.143 0.09533,10e-7 0.233997,-0.013 0.416,-0.039 v 1.274 c -0.29467,0.09533 -0.64567,0.143 -1.053,0.143 -1.187335,0 -1.781001,-0.550333 -1.781,-1.651 v -4.316 h -0.897 v -1.209 h 0.897 v -1.885 h 1.82 v 1.885 h 1.014"
         style="font-variant:normal;font-weight:600;font-stretch:normal;font-size:13px;font-family:FreeSans;-inkscape-font-specification:'FreeSans Semi-Bold';fill:#ffffff"
         id="path3017"
         inkscape:connector-curvature="0" />
      <path
         d="m 49.834076,41.704396 c 1.100662,7e-6 1.954328,0.333674 2.561,1.001 0.615327,0.658672 0.922993,1.581672 0.923,2.769 -7e-6,1.126669 -0.312007,2.019335 -0.936,2.678 -0.624005,0.658667 -1.469005,0.988 -2.535,0.988 -1.083336,0 -1.932668,-0.329333 -2.548,-0.988 -0.615334,-0.667332 -0.923,-1.577331 -0.923,-2.73 0,-1.152662 0.307666,-2.058328 0.923,-2.717 0.615332,-0.667326 1.460331,-1.000993 2.535,-1.001 m 0.013,1.469 c -0.494003,6e-6 -0.892669,0.208006 -1.196,0.624 -0.303335,0.416005 -0.455002,0.957671 -0.455,1.625 -2e-6,0.667336 0.151665,1.209003 0.455,1.625 0.303331,0.416002 0.701997,0.624002 1.196,0.624 0.485329,2e-6 0.879662,-0.203665 1.183,-0.611 0.311995,-0.415997 0.467995,-0.95333 0.468,-1.612 -5e-6,-0.693329 -0.151672,-1.243662 -0.455,-1.651 -0.294671,-0.415994 -0.693337,-0.623994 -1.196,-0.624"
         style="font-variant:normal;font-weight:600;font-stretch:normal;font-size:13px;font-family:FreeSans;-inkscape-font-specification:'FreeSans Semi-Bold';fill:#ffffff"
         id="path3019"
         inkscape:connector-curvature="0" />
      <path
         d="m 54.673733,41.821396 h 1.82 v 1.378 c 0.190664,-0.47666 0.45933,-0.844993 0.806,-1.105 0.346663,-0.259993 0.727996,-0.389993 1.144,-0.39 0.078,7e-6 0.151662,0.0043 0.221,0.013 v 1.846 c -0.216672,-0.03466 -0.407338,-0.05199 -0.572,-0.052 -1.066003,6e-6 -1.599003,0.533005 -1.599,1.599 v 3.731 h -1.82 v -7.02"
         style="font-variant:normal;font-weight:600;font-stretch:normal;font-size:13px;font-family:FreeSans;-inkscape-font-specification:'FreeSans Semi-Bold';fill:#ffffff"
         id="path3021"
         inkscape:connector-curvature="0" />
    </g>
    <rect
       style="fill:#ffffff"
       id="rect3094"
       width="3.2482715"
       height="4.6569614"
       x="2.0716019"
       y="6.0807724"
       ry="0.52480584" />
    <rect
       ry="0.52480584"
       y="52.690147"
       x="2.0716019"
       height="4.6569614"
       width="3.2482715"
       id="rect3116"
       style="fill:#ffffff" />
    <rect
       style="fill:#ffffff"
       id="rect3118"
       width="3.2482715"
       height="4.6569614"
       x="10.071602"
       y="52.690147"
       ry="0.52480584" />
    <rect
       ry="0.52480584"
       y="52.690147"
       x="18.071613"
       height="4.6569614"
       width="3.2482715"
       id="rect3120"
       style="fill:#ffffff" />
    <rect
       style="fill:#ffffff"
       id="rect3122"
       width="3.2482715"
       height="4.6569614"
       x="26.071613"
       y="52.690147"
       ry="0.52480584" />
    <rect
       ry="0.52480584"
       y="52.690147"
       x="34.071613"
       height="4.6569614"
       width="3.2482715"
       id="rect3124"
       style="fill:#ffffff" />
    <rect
       style="fill:#ffffff"
       id="rect3126"
       width="3.2482715"
       height="4.6569614"
       x="42.071613"
       y="52.690147"
       ry="0.52480584" />
    <rect
       ry="0.52480584"
       y="52.690147"
       x="50.071613"
       height="4.6569614"
       width="3.2482715"
       id="rect3135"
       style="fill:#ffffff" />
    <rect
       style="fill:#ffffff"
       id="rect3144"
       width="3.2482715"
       height="4.6569614"
       x="58.071613"
       y="52.690147"
       ry="0.52480584" />
    <rect
       ry="0.52480584"
       y="6.0807724"
       x="10.071602"
       height="4.6569614"
       width="3.2482715"
       id="rect3146"
       style="fill:#ffffff" />
    <rect
       style="fill:#ffffff"
       id="rect3148"
       width="3.2482715"
       height="4.6569614"
       x="18.071613"
       y="6.0807724"
       ry="0.52480584" />
    <rect
       ry="0.52480584"
       y="6.0807724"
       x="26.071613"
       height="4.6569614"
       width="3.2482715"
       id="rect3150"
       style="fill:#ffffff" />
    <rect
       style="fill:#ffffff"
       id="rect3152"
       width="3.2482715"
       height="4.6569614"
       x="34.071613"
       y="6.0807724"
       ry="0.52480584" />
    <rect
       ry="0.52480584"
       y="6.0807724"
       x="42.071613"
       height="4.6569614"
       width="3.2482715"
       id="rect3154"
       style="fill:#ffffff" />
    <rect
       style="fill:#ffffff"
       id="rect3156"
       width="3.2482715"
       height="4.6569614"
       x="50.071613"
       y="6.0807724"
       ry="0.52480584" />
    <rect
       style="fill:#ffffff"
       id="rect3160"
       width="3.2482715"
       height="4.6569614"
       x="58.071613"
       y="6.0807724"
       ry="0.52480584" />
  </g>
</svg>
